<?xml version="1.0" standalone="no"?>
<!DOCTYPE svg PUBLIC "-//W3C//DTD SVG 20010904//EN"
 "http://www.w3.org/TR/2001/REC-SVG-20010904/DTD/svg10.dtd">
<svg version="1.0" xmlns="http://www.w3.org/2000/svg"
 width="848.000000pt" height="848.000000pt" viewBox="0 0 848.000000 848.000000"
 preserveAspectRatio="xMidYMid meet">
<metadata>
Created by potrace 1.14, written by Peter Selinger 2001-2017
</metadata>
<g transform="translate(0.000000,848.000000) scale(0.100000,-0.100000)"
fill="#000000" stroke="none">
<path d="M4260 7475 c0 -8 2 -15 4 -15 2 0 6 7 10 15 3 8 1 15 -4 15 -6 0 -10
-7 -10 -15z"/>
<path d="M4260 7390 c0 -35 3 -60 7 -57 7 8 5 108 -3 116 -2 2 -4 -24 -4 -59z"/>
<path d="M4407 7293 c-4 -7 -8 -426 -7 -932 l0 -920 -62 25 c-34 13 -65 24
-69 24 -3 0 -10 -32 -14 -72 -7 -71 -6 -72 22 -92 15 -11 60 -50 98 -87 81
-77 117 -98 185 -106 45 -5 59 -1 172 53 l123 59 115 0 c84 0 126 -4 155 -17
35 -14 44 -14 65 -2 25 13 25 13 3 14 -13 0 -23 -5 -23 -12 0 -15 -13 -1 -16
17 -1 8 4 11 12 8 31 -11 12 8 -28 29 l-43 23 46 3 c32 2 63 -4 100 -21 l54
-24 -3 -46 c-2 -26 -8 -47 -14 -47 -5 0 -6 5 -2 12 5 8 2 9 -9 5 -10 -3 -17
-3 -17 2 0 4 -6 8 -12 9 -7 0 -24 3 -38 7 -22 6 -21 3 10 -22 65 -51 103 -97
131 -157 16 -33 41 -69 56 -81 l27 -22 42 32 c69 53 122 68 211 63 63 -4 93
-12 155 -42 88 -41 124 -45 162 -15 77 61 74 165 -8 237 -69 61 -176 40 -246
-48 -18 -22 -40 -40 -51 -40 -61 0 -116 72 -105 135 15 80 91 145 201 170 109
26 233 -2 345 -77 110 -73 163 -160 180 -293 25 -199 -47 -361 -194 -438 -56
-29 -69 -32 -157 -32 -92 0 -98 1 -150 34 -131 83 -164 101 -198 107 -45 9
-135 -6 -271 -45 -58 -17 -170 -42 -250 -56 -324 -58 -475 -89 -483 -99 -5 -6
-6 -44 -3 -85 8 -117 16 -111 -194 -155 -201 -42 -180 -43 -407 6 -174 38
-163 26 -163 168 l0 77 -108 19 -107 20 4 -39 c2 -22 6 -35 10 -29 7 11 124
-10 145 -27 7 -6 15 -8 19 -5 3 3 8 -16 12 -43 3 -26 7 -59 9 -72 4 -23 2 -23
-50 -17 -30 3 -78 14 -107 24 l-52 17 -3 101 -3 101 -77 7 c-126 11 -279 37
-364 62 -15 4 -18 -1 -18 -26 0 -27 3 -30 20 -25 11 3 20 2 20 -3 0 -6 29 -24
65 -41 36 -18 65 -36 65 -42 0 -6 6 -9 13 -6 7 3 13 -5 13 -19 1 -14 5 -36 8
-50 7 -25 6 -25 -46 -18 -29 4 -80 14 -113 23 l-60 16 -3 100 -3 100 -137 33
c-113 28 -246 71 -357 117 -18 8 -19 7 -6 -9 15 -18 67 -48 75 -44 3 2 11 -5
18 -15 8 -10 18 -17 23 -16 6 2 28 -8 50 -21 21 -14 45 -25 53 -26 8 -2 21 -9
30 -16 21 -17 90 -49 117 -54 11 -2 27 -12 35 -22 9 -10 22 -16 29 -14 8 3 11
0 7 -6 -7 -11 18 -59 39 -75 16 -13 -50 2 -195 43 -74 21 -164 46 -200 55 -36
9 -78 22 -95 30 -16 7 -70 23 -120 36 l-90 24 -2 103 c0 57 -4 106 -7 109 -3
4 -6 44 -6 90 0 81 0 83 -19 64 -10 -10 -44 -33 -75 -52 l-56 -34 1 -70 c0
-48 3 -64 9 -50 5 11 9 16 10 10 0 -5 4 -26 9 -46 10 -42 5 -54 -26 -63 l-23
-7 0 224 0 225 79 58 c73 55 79 62 84 104 4 25 11 62 17 82 16 56 92 149 144
178 46 24 49 31 48 90 0 14 0 57 -1 95 l-1 70 -80 -75 c-44 -41 -80 -83 -80
-92 0 -9 -4 -20 -10 -23 -18 -11 -11 67 7 87 17 19 16 19 -11 15 -42 -5 -80
-67 -41 -67 8 0 15 -9 15 -20 0 -11 -7 -20 -15 -20 -8 0 -23 -13 -33 -29 -20
-32 -131 -131 -148 -131 -21 0 -24 -29 -24 -210 l0 -179 -27 -21 c-23 -18 -27
-28 -24 -63 1 -23 7 -48 13 -54 10 -12 0 -18 -24 -14 -5 0 -8 -4 -8 -10 0 -5
-4 -8 -9 -5 -4 3 -19 -6 -32 -20 -19 -20 -25 -22 -34 -12 -44 58 -169 108
-269 108 -91 0 -216 -48 -216 -83 0 -14 54 2 63 19 4 8 13 14 18 14 6 0 7 -4
4 -10 -4 -6 4 -6 22 1 41 15 136 21 144 8 3 -6 24 -12 47 -12 22 -1 38 -6 35
-11 -6 -9 15 -26 32 -26 6 0 3 5 -5 10 -8 5 -10 10 -4 10 20 0 31 -23 33 -72
l3 -48 -64 -1 c-170 -1 -296 -134 -306 -323 -2 -44 0 -98 6 -119 12 -44 8 -45
-56 -13 -26 13 -69 27 -94 31 -49 7 -65 19 -85 64 -16 36 -16 16 1 -73 24
-122 53 -170 156 -251 77 -61 91 -76 104 -119 9 -26 16 -59 16 -73 0 -34 18
-63 38 -63 22 0 65 -38 57 -50 -3 -5 0 -12 6 -16 7 -4 9 -3 6 3 -4 6 6 15 21
22 25 11 26 10 8 -4 -18 -14 -18 -15 -2 -15 9 0 14 -4 11 -10 -3 -6 1 -7 9 -4
9 3 16 11 16 17 0 6 3 8 6 5 3 -4 0 -17 -7 -30 -6 -12 -8 -20 -4 -16 5 4 15 2
24 -5 14 -11 14 -10 2 6 -12 15 -12 17 3 11 12 -5 16 -19 16 -58 0 -67 10
-126 22 -126 5 0 32 -16 61 -35 33 -22 64 -35 84 -35 l33 0 0 -130 c0 -71 3
-130 8 -130 11 0 71 38 172 107 136 94 229 113 357 74 156 -47 245 -154 326
-390 30 -86 50 -110 123 -148 30 -15 54 -31 54 -35 0 -4 -12 -10 -27 -14 -44
-9 -50 -12 -26 -13 33 -1 50 -37 58 -120 l7 -74 -48 7 c-82 12 -147 49 -235
133 -50 47 -74 65 -59 44 28 -40 19 -65 -26 -68 -23 -2 -35 4 -56 34 -16 20
-28 30 -28 22 1 -8 11 -26 23 -41 17 -20 33 -27 67 -30 53 -4 71 -14 64 -32
-5 -13 62 -125 101 -168 8 -10 12 -18 8 -18 -4 0 10 -16 31 -35 21 -19 33 -35
26 -35 -12 0 -83 69 -140 137 -18 21 -40 33 -83 42 -63 14 -85 32 -170 141
-58 74 -105 100 -183 100 -63 0 -137 -28 -182 -70 -17 -16 -22 -17 -22 -6 0 8
4 17 9 20 5 3 7 19 5 35 -3 27 3 34 61 73 42 27 77 42 100 43 52 3 138 -14
150 -29 6 -6 26 -20 45 -29 52 -25 73 -44 64 -58 -4 -7 -3 -10 4 -5 5 3 13 0
16 -6 3 -7 4 9 2 35 -3 40 -10 56 -41 87 -57 59 -124 84 -220 84 -89 0 -133
-15 -195 -64 -54 -43 -100 -116 -100 -158 0 -46 58 -103 124 -122 102 -28 182
-105 211 -202 8 -26 16 -52 20 -57 3 -5 28 -1 55 10 142 54 268 -2 347 -154
48 -90 102 -145 175 -177 32 -14 58 -31 58 -37 0 -9 -11 -6 -32 7 -34 20 -74
27 -64 11 4 -5 0 -12 -6 -14 -8 -3 -6 -6 4 -6 10 -1 17 -4 17 -8 -4 -23 2 -43
11 -38 6 3 10 -3 10 -14 0 -30 2 -34 29 -58 l24 -23 -39 1 c-52 2 -89 12 -89
24 0 6 -11 38 -24 72 -18 48 -31 67 -57 82 -31 19 -60 57 -106 140 -28 51 -72
71 -158 71 -48 0 -86 6 -105 16 l-30 15 23 -24 c12 -13 28 -24 35 -25 49 -6
120 -23 145 -36 16 -8 31 -14 33 -13 2 1 3 0 2 -2 -2 -2 4 -9 11 -15 8 -6 25
-32 38 -57 13 -26 37 -59 54 -74 16 -14 23 -24 17 -20 -7 3 -13 4 -13 1 0 -9
40 -47 40 -38 0 4 11 -10 24 -30 12 -21 26 -35 29 -31 4 3 7 1 7 -5 0 -40 -80
7 -161 95 -71 77 -93 91 -164 104 -75 14 -144 49 -172 87 -12 16 -32 61 -43
98 -34 109 -39 119 -82 163 -87 88 -208 119 -313 82 -103 -37 -95 -38 -95 5 0
43 -36 127 -69 161 -11 12 -21 27 -21 32 0 5 -4 12 -9 15 -5 3 -9 -15 -9 -41
-2 -92 -70 -149 -169 -141 -57 5 -100 35 -129 90 -27 52 -7 144 38 171 26 17
22 58 -11 104 -30 41 -80 69 -105 60 -8 -3 -20 -25 -27 -47 -10 -33 -21 -46
-52 -62 l-40 -20 6 -73 c7 -93 32 -141 101 -198 39 -32 78 -52 141 -72 100
-32 145 -64 145 -105 0 -59 32 -204 54 -249 30 -57 92 -116 155 -144 57 -26
201 -35 255 -17 21 7 40 10 42 7 3 -3 -17 -34 -45 -70 -28 -35 -48 -67 -44
-71 3 -3 2 -6 -4 -6 -6 0 -13 -6 -16 -14 -4 -9 0 -12 12 -9 12 3 20 -2 24 -16
4 -15 -7 -32 -43 -65 -27 -25 -59 -48 -72 -51 -12 -3 -41 -9 -63 -13 -34 -7
-40 -12 -43 -35 -3 -27 -2 -28 35 -21 37 7 38 6 21 -13 -10 -11 -18 -25 -18
-32 0 -7 -5 -9 -12 -5 -7 4 -10 4 -6 -1 4 -4 0 -14 -10 -21 -14 -10 -15 -15
-4 -26 10 -10 17 -10 32 0 21 13 42 17 25 4 -26 -19 -32 -47 -15 -76 20 -37
40 -45 40 -16 0 17 -4 21 -18 15 -14 -5 -15 -4 -4 6 6 7 12 21 12 30 0 10 5
21 12 25 7 4 8 3 4 -5 -4 -6 0 -18 8 -27 9 -8 16 -23 16 -32 0 -13 5 -11 20 8
16 22 22 23 39 13 15 -9 22 -10 27 -1 4 6 3 8 -3 5 -5 -3 -10 0 -10 7 0 8 6
12 14 9 7 -3 13 1 13 8 1 8 7 28 15 44 l14 30 -6 -40 c-8 -54 -49 -111 -133
-187 -39 -35 -70 -70 -70 -81 0 -26 -18 -57 -33 -57 -7 0 -51 36 -97 81 -103
98 -116 106 -125 79 -4 -11 -4 -34 0 -51 6 -25 1 -36 -29 -69 -38 -42 -50 -73
-18 -49 14 11 14 10 -2 -8 -16 -19 -17 -25 -6 -38 16 -19 74 -45 100 -45 10 0
21 -6 23 -12 4 -8 8 -5 12 9 4 13 12 20 21 16 13 -5 19 8 15 30 -1 5 3 6 9 2
6 -4 17 -1 25 5 8 7 15 9 15 4 0 -5 -60 -68 -132 -141 -123 -124 -170 -159
-154 -116 4 10 4 14 0 11 -9 -10 -59 39 -59 59 0 9 -6 18 -14 21 -9 3 -11 0
-6 -8 5 -8 4 -11 -3 -6 -6 4 -9 13 -6 20 3 7 -3 15 -13 18 -28 6 -78 -6 -78
-20 0 -6 50 -62 110 -123 98 -99 151 -139 185 -139 7 0 91 77 188 172 161 157
178 176 188 219 27 118 134 219 233 219 30 0 41 18 41 68 0 14 6 22 18 23 9 0
12 3 5 5 -29 12 23 78 82 105 45 21 121 24 178 8 74 -20 167 -135 167 -204 0
-65 86 -154 168 -176 57 -14 69 -29 23 -29 -16 0 -34 -7 -41 -15 -7 -8 -21
-15 -32 -15 -12 0 -22 -9 -25 -20 -4 -14 -11 -19 -23 -15 -10 3 -21 2 -24 -3
-3 -6 13 -13 37 -16 23 -4 69 -20 101 -35 33 -16 66 -27 75 -24 12 4 13 2 3
-4 -9 -7 -6 -15 14 -34 30 -28 104 -133 104 -148 0 -6 12 -21 26 -34 31 -29
42 -75 45 -181 1 -44 6 -98 11 -121 22 -99 143 -156 225 -105 39 23 53 49 68
120 l11 55 61 0 c52 0 68 -5 105 -30 62 -44 84 -91 93 -193 13 -160 44 -234
133 -319 167 -161 504 -164 673 -6 97 91 127 157 139 317 9 118 19 142 80 183
57 39 146 25 184 -29 11 -16 16 -46 16 -105 0 -80 1 -85 33 -118 42 -46 88
-54 150 -27 71 31 80 57 86 249 l6 162 30 31 c16 17 54 42 85 56 96 45 120 79
135 185 12 92 94 180 181 194 69 11 117 -9 197 -81 39 -36 95 -78 122 -92 46
-25 60 -27 165 -27 105 0 120 2 171 27 67 33 156 124 192 194 40 78 61 241 38
298 -6 15 -11 12 -34 -24 -32 -47 -130 -115 -191 -131 -74 -20 -165 -15 -233
13 -35 14 -63 24 -63 22 0 -2 25 -20 55 -41 63 -41 141 -65 167 -52 14 8 16 6
11 -7 -5 -13 -3 -15 7 -9 8 5 25 10 38 11 l25 3 -28 -29 c-15 -16 -48 -36 -73
-45 -110 -37 -217 -6 -293 85 -95 114 -122 139 -164 156 -80 30 -153 2 -180
-70 -11 -29 -25 -46 -43 -53 l-27 -11 26 -1 c25 -1 26 -3 19 -35 -19 -87 -74
-134 -205 -176 -95 -31 -113 -45 -183 -148 -123 -179 -194 -211 -407 -181 -67
10 -90 9 -142 -5 -112 -28 -164 -76 -229 -207 -19 -39 -48 -84 -65 -100 -58
-56 -175 -64 -248 -16 -30 20 -49 47 -83 113 -75 151 -160 215 -322 241 -200
31 -305 121 -342 292 -28 129 -87 204 -186 237 -26 8 -52 23 -57 32 -13 24
-53 21 -74 -5 -37 -45 -127 -14 -127 43 0 58 76 87 115 44 23 -26 59 -25 95 1
54 41 173 8 266 -74 62 -55 91 -103 105 -178 6 -35 16 -88 21 -117 18 -98 100
-165 247 -202 146 -37 202 -75 286 -197 73 -107 109 -133 179 -133 69 0 107
25 160 107 90 138 154 183 314 217 131 28 168 44 220 90 42 39 54 61 72 143
24 106 91 169 233 219 120 42 158 95 174 239 11 113 70 191 183 244 49 23 67
26 165 26 102 0 114 -2 161 -28 28 -16 73 -48 100 -71 79 -68 119 -88 188 -93
117 -10 183 32 240 150 77 160 198 240 430 287 41 8 55 15 45 21 -10 6 -6 9
13 9 23 0 29 6 39 39 14 48 6 100 -22 135 -17 21 -19 30 -9 41 20 24 89 38
153 30 33 -3 82 -1 112 5 63 13 183 87 231 142 44 51 92 152 105 223 13 70 8
190 -10 222 l-11 22 -63 -34 c-147 -81 -325 -64 -387 37 -26 43 -25 71 4 105
23 27 25 27 70 15 166 -44 242 181 96 287 -57 41 -103 55 -167 48 -99 -10
-171 -69 -243 -197 -23 -41 -51 -86 -63 -100 -11 -14 2 -2 29 26 27 29 54 58
59 65 56 77 69 90 81 85 8 -3 17 1 20 9 4 8 12 15 20 15 24 0 94 -42 94 -56 0
-22 -88 -150 -146 -213 -65 -71 -183 -141 -305 -182 -83 -28 -107 -32 -209
-33 -126 -1 -149 6 -268 78 -86 51 -154 70 -249 68 -46 0 -83 1 -83 2 0 2 7
19 15 39 14 35 54 71 105 94 21 9 22 12 6 12 -34 2 -97 -51 -128 -106 -28 -50
-32 -53 -111 -79 -119 -39 -191 -80 -247 -141 -49 -53 -60 -80 -89 -206 -22
-94 -82 -144 -211 -173 -92 -21 -140 -61 -140 -117 0 -19 -6 -39 -13 -45 -9
-8 -149 -52 -164 -52 -2 0 -3 34 -3 75 0 87 12 117 65 164 43 37 83 55 162 71
118 25 129 41 136 196 5 120 30 186 101 262 51 55 104 86 224 132 86 33 112
53 195 153 109 130 271 157 457 76 65 -28 87 -33 160 -33 72 -1 91 2 123 22
37 23 37 24 37 88 l0 64 33 0 c29 0 35 6 58 54 l26 54 -49 33 c-79 50 -146
167 -164 284 -7 50 16 144 57 228 33 68 83 112 176 154 56 26 66 41 33 50 -16
4 -20 14 -20 47 -1 66 -11 120 -26 137 -8 8 -14 18 -14 21 0 3 22 29 48 58
l48 52 88 -86 c49 -47 96 -86 105 -86 21 0 116 71 144 108 12 15 43 52 69 81
63 72 66 111 11 161 -50 46 -80 63 -89 49 -4 -7 -17 0 -35 17 -15 15 -26 31
-23 35 2 4 -1 11 -7 15 -8 5 -9 3 -4 -7 8 -12 6 -12 -8 0 -20 16 -13 33 10 24
11 -4 8 4 -10 22 -15 17 -27 37 -27 46 0 19 -52 79 -68 79 -6 0 -17 -6 -24
-13 -7 -8 -21 -14 -32 -14 -10 0 -93 70 -185 156 -92 86 -201 188 -243 227
l-77 71 5 54 c3 30 1 72 -4 94 l-10 40 -1 -35 c-1 -35 -1 -35 -14 -10 -7 13
-49 51 -94 85 -47 34 -82 68 -82 78 -1 23 14 22 49 -5 16 -12 31 -20 32 -17 2
2 1 85 -2 184 -3 99 -7 143 -8 98 -1 -46 -6 -83 -11 -83 -20 0 -33 32 -30 73
4 41 3 43 -23 45 -33 3 -39 -23 -8 -31 11 -3 20 -10 20 -17 0 -6 -5 -8 -12 -4
-7 5 -21 9 -30 9 -26 2 -31 11 -20 32 7 13 6 22 -6 33 -14 13 -15 12 -9 -3 7
-18 -8 -24 -18 -7 -3 6 -11 10 -16 10 -6 0 -7 -5 -3 -12 4 -7 3 -8 -5 -4 -6 4
-9 11 -6 16 3 5 1 11 -5 15 -5 3 -10 13 -10 21 0 10 5 12 13 8 9 -6 9 -5 0 8
-7 8 -10 18 -6 22 4 4 0 4 -10 0 -13 -5 -17 -1 -17 20 0 18 -5 26 -17 26 -21
0 -70 36 -62 44 3 4 27 -5 52 -20 26 -14 47 -21 47 -15 0 6 -22 20 -50 32
l-50 21 0 49 c0 26 -4 51 -10 54 -6 4 -10 -61 -10 -181 1 -103 -2 -189 -5
-192 -3 -3 -5 9 -5 26 0 19 -8 40 -21 53 -12 12 -18 27 -14 39 5 15 1 18 -22
15 -15 -1 -29 -8 -31 -14 -2 -6 -8 -11 -14 -11 -6 0 -8 7 -4 15 3 9 0 15 -10
15 -8 0 -14 -7 -12 -16 4 -24 -13 -26 -39 -6 -17 13 -25 34 -32 87 -9 63 -14
149 -12 183 1 16 20 15 40 -1 9 -8 34 -24 56 -36 39 -22 39 -22 12 -1 -15 12
-24 26 -21 31 3 5 2 9 -3 8 -20 -4 -34 2 -31 14 5 29 -14 109 -28 114 -9 3
-20 17 -26 32 -10 24 -12 19 -20 -44 -11 -91 -10 -89 -36 -65 -12 11 -22 18
-22 14 0 -3 -6 -3 -13 2 -7 5 -4 1 8 -8 47 -41 55 -53 55 -86 0 -27 -3 -33
-16 -28 -9 3 -27 6 -40 6 -16 0 -24 6 -24 18 -1 16 -1 16 -11 -1 -16 -27 -29
-11 -30 36 l-1 42 -8 -38 c-8 -43 -20 -60 -20 -29 0 19 -3 20 -25 12 -21 -8
-25 -7 -25 9 0 14 -10 20 -37 25 -73 12 -78 12 -74 -4 3 -8 7 -40 9 -70 4 -54
22 -97 22 -51 0 19 4 21 23 16 33 -11 197 -105 240 -139 36 -29 37 -31 37 -95
0 -78 -8 -111 -25 -111 -7 0 -33 9 -59 21 -25 11 -51 17 -58 13 -7 -4 -8 -3
-4 4 4 7 2 12 -3 12 -6 0 -11 -4 -11 -10 0 -5 -6 -10 -13 -10 -8 0 -25 -9 -38
-21 -14 -12 -33 -19 -46 -16 -12 2 -24 -1 -26 -7 -8 -21 -16 0 -23 56 -7 56
-6 57 17 52 l24 -5 -24 11 c-23 10 -24 13 -18 93 6 80 -2 123 -17 98 -11 -17
-82 -13 -100 5 -11 11 -16 35 -16 79 0 58 3 66 25 81 14 9 34 14 45 11 11 -3
23 -1 26 4 3 5 2 9 -3 10 -4 0 -29 2 -55 5 -25 2 -68 0 -95 -5 -34 -7 -50 -6
-55 2 -4 7 -8 57 -9 112 -2 77 -4 88 -8 50 -3 -27 -10 -50 -16 -50 -15 1 -96
24 -130 38 -16 6 -34 11 -38 9 -5 -1 -6 7 -2 18 3 11 3 25 -1 32 -4 7 -9 38
-11 70 l-4 58 38 1 c21 1 54 1 73 0 46 -3 25 12 -50 35 -30 10 -55 18 -56 18
0 1 2 31 5 68 5 50 3 69 -6 72 -7 3 -13 18 -13 32 0 15 -3 25 -6 21 -3 -3 -6
-131 -5 -284 0 -153 -3 -284 -8 -292 -8 -12 -21 -12 -87 -2 -43 7 -84 15 -91
18 -10 4 -13 44 -13 174 0 106 -4 169 -10 169 -5 0 -10 -23 -10 -51 l0 -51
-31 29 c-17 15 -34 37 -38 48 -5 12 -30 28 -62 40 l-54 21 -3 58 -3 58 28 -6
c15 -3 53 -8 83 -11 90 -10 89 -10 93 -73 l3 -57 2 57 c2 50 5 57 25 60 16 3
11 6 -18 12 -22 4 -77 17 -122 29 l-82 21 -5 61 c-3 33 -7 74 -8 90 -2 19 -6
26 -11 18z m128 -496 l70 -12 3 -174 c3 -182 -1 -201 -39 -180 -10 5 -21 23
-25 41 -7 32 -8 33 -15 8 -4 -16 -7 -19 -8 -7 -1 9 -7 17 -13 17 -30 1 -65 46
-72 89 l-7 44 53 -7 c29 -3 69 -9 88 -12 61 -9 12 13 -55 26 -34 6 -66 15 -72
18 -14 9 -22 150 -8 156 15 7 24 6 100 -7z m500 -137 c9 -7 13 -20 10 -29 -2
-9 -6 -76 -7 -149 -2 -74 -6 -136 -11 -139 -4 -2 -43 7 -86 22 l-79 26 -6 42
c-4 33 -10 237 -7 268 1 10 169 -27 186 -41z m-300 -99 l90 -18 0 -109 c1
-165 4 -211 14 -195 8 12 24 10 103 -11 l93 -25 3 -98 3 -97 -30 4 c-40 6 -51
-19 -13 -28 15 -4 33 -12 40 -17 8 -6 43 -25 78 -42 l63 -31 12 29 c23 55 151
127 226 127 94 0 213 -71 254 -152 36 -71 21 -180 -30 -208 -11 -5 -38 -10
-61 -10 -33 0 -48 6 -71 29 -34 35 -36 59 -8 95 27 35 19 52 -31 66 -59 16
-105 4 -140 -36 -35 -40 -35 -41 -13 -84 14 -30 14 -36 2 -59 -10 -18 -25 -27
-47 -29 -63 -6 -122 91 -108 179 4 28 2 38 -10 43 -19 7 -63 -21 -74 -48 -7
-16 -9 -8 -10 29 0 58 -19 100 -21 50 -1 -16 -3 -52 -4 -80 -2 -27 -3 -60 -4
-72 0 -13 -7 -23 -16 -23 -16 0 -21 15 -7 23 4 2 1 2 -7 0 -7 -2 -19 2 -27 7
-7 6 -28 12 -47 13 -19 1 -33 5 -30 10 2 4 -2 7 -10 7 -33 0 -47 35 -50 121
l-2 84 58 -2 c42 -1 57 1 54 10 -4 13 -113 55 -121 46 -3 -2 -6 -37 -7 -77 -2
-83 4 -79 -114 -59 l-70 12 -8 60 c-5 33 -6 93 -3 132 l4 73 -36 9 c-20 5 -54
13 -74 17 -22 3 -38 12 -38 19 0 8 -5 26 -12 42 -15 37 -19 52 -22 91 -4 29
-2 32 25 32 17 0 91 -9 165 -21 75 -11 138 -19 140 -16 3 2 -17 8 -43 12 -26
4 -63 13 -80 20 l-33 14 0 80 c0 45 3 81 8 81 4 0 48 -9 97 -19z m-232 -88
c-7 -2 -21 -2 -30 0 -10 3 -4 5 12 5 17 0 24 -2 18 -5z m47 -267 l65 -11 3
-50 c2 -27 1 -101 -3 -163 -6 -101 -10 -116 -32 -140 -16 -17 -21 -20 -15 -8
7 13 6 26 -1 37 -8 13 -6 23 6 43 21 32 21 36 0 37 -17 1 -17 2 0 6 32 8 17
23 -23 23 -33 0 -42 4 -49 22 -4 12 -23 27 -42 33 l-34 12 -3 86 -3 87 33 -1
c18 -1 62 -6 98 -13z m1379 -123 c103 -81 155 -143 122 -143 -21 0 -176 137
-179 158 -5 30 3 28 57 -15z m-230 -15 c60 -36 151 -112 151 -126 0 -17 -41
-5 -53 15 -5 7 -12 11 -18 8 -5 -4 -9 1 -9 10 0 9 -4 14 -9 10 -6 -3 -19 4
-30 16 -11 12 -24 18 -30 14 -6 -3 -14 2 -18 12 -3 10 -15 28 -26 41 -27 29
-6 29 42 0z m-515 -36 l58 -27 -25 -27 c-23 -25 -29 -26 -56 -17 -17 6 -31 16
-31 22 0 6 -7 18 -15 27 -14 16 -12 51 4 50 3 -1 32 -13 65 -28z m-441 -128
l88 -16 -2 -120 -1 -120 -32 7 c-38 8 -47 10 -66 18 -8 3 -38 11 -67 17 -74
17 -76 32 -27 218 4 15 2 15 107 -4z m1107 -141 c0 -23 -15 -14 -85 52 l-70
66 78 -53 c42 -28 77 -58 77 -65z m-1130 -106 l105 -22 -2 -159 c-1 -91 -6
-163 -12 -169 -7 -7 -34 -6 -83 4 -40 7 -76 13 -79 12 -3 -1 -9 64 -13 144 -3
81 -8 149 -11 151 -2 2 -19 6 -37 7 -18 2 -39 3 -46 4 -7 1 -10 6 -7 12 4 6 1
9 -6 7 -14 -3 -79 32 -79 42 0 10 159 -9 270 -33z m1457 -41 c134 -109 129
-99 125 -234 -2 -64 -6 -119 -8 -121 -2 -2 -4 43 -4 101 l0 105 -97 84 c-106
90 -113 98 -113 117 0 22 17 13 97 -52z m-1027 -50 c41 -12 90 -30 108 -40 29
-15 32 -21 32 -61 0 -25 -4 -45 -9 -45 -5 0 -12 -16 -16 -36 l-6 -36 -20 21
c-28 30 -124 33 -146 4 -6 -8 -16 -12 -21 -9 -12 7 -16 226 -5 226 4 0 42 -11
83 -24z m-190 -10 c60 -17 75 -25 75 -41 0 -22 -5 -22 -75 -5 -51 12 -130 70
-95 69 11 0 54 -10 95 -23z m-357 -78 c17 -8 18 -18 12 -86 -4 -42 -9 -78 -10
-80 -1 -2 -24 3 -51 9 -49 13 -78 31 -67 43 4 3 1 6 -5 6 -7 0 -12 17 -12 45
0 34 -5 47 -20 55 -11 6 -20 16 -20 22 0 12 145 1 173 -14z m1068 -45 c13 -17
13 -17 -6 -3 -11 8 -22 16 -24 17 -2 2 0 3 6 3 6 0 17 -8 24 -17z m-264 -34
c58 -22 87 -38 79 -46 -4 -5 -166 56 -166 63 0 9 32 3 87 -17z m-429 -36 c37
-10 62 -21 62 -29 0 -18 -31 -18 -56 1 -19 14 -43 21 -31 8 4 -3 2 -12 -4 -20
-10 -11 -15 -11 -27 -1 -13 11 -15 10 -9 -4 8 -22 -9 -23 -29 -3 -14 13 -13
15 8 16 13 1 31 1 40 0 12 -2 16 3 12 13 -7 18 -20 21 -29 6 -9 -15 -25 -12
-25 5 0 8 -5 14 -11 13 -6 -2 -14 3 -17 11 -5 15 0 14 116 -16z m288 -204 c4
-8 1 -8 -14 0 -12 6 -24 16 -28 22 -4 8 -1 8 14 0 12 -6 24 -16 28 -22z m1374
-154 c30 -30 52 -55 49 -55 -2 0 -29 25 -59 55 -30 30 -52 55 -49 55 2 0 29
-25 59 -55z m-4440 -59 c0 -18 -13 -32 -51 -56 -34 -23 -47 -36 -40 -43 6 -6
7 -16 3 -22 -4 -6 3 0 15 14 12 14 19 30 17 35 -3 6 2 2 10 -8 9 -11 19 -17
22 -13 4 4 1 15 -7 24 -12 16 -12 17 2 6 15 -12 18 -30 22 -126 2 -38 1 -38
-90 -91 l-91 -53 -6 30 c-3 16 -6 68 -6 115 0 74 3 89 22 109 12 13 25 23 29
23 4 0 38 18 75 40 38 22 70 40 71 40 2 0 3 -11 3 -24z m4314 -124 c13 -23
-42 18 -84 64 l-35 38 55 -43 c30 -24 59 -50 64 -59z m3 -109 c-2 -16 -4 -3
-4 27 0 30 2 43 4 28 2 -16 2 -40 0 -55z m0 -80 c-3 -10 -5 -4 -5 12 0 17 2
24 5 18 2 -7 2 -21 0 -30z m-3048 -103 c52 -14 91 -50 91 -85 0 -14 6 -25 13
-26 6 0 3 -4 -8 -9 -25 -11 -156 -12 -171 -2 -13 9 -25 114 -17 154 l6 30 21
-25 c12 -14 41 -30 65 -37z m-1244 36 c18 -8 42 -29 53 -49 21 -32 22 -46 21
-223 -1 -104 -4 -234 -8 -289 l-6 -100 -50 6 c-27 3 -41 7 -30 8 17 1 18 3 5
11 -12 8 -11 10 6 10 32 0 52 30 60 88 l7 52 -77 0 -76 0 -1 -92 c0 -51 -4
-102 -9 -113 -7 -17 -9 -16 -9 10 l-1 30 -13 -25 c-7 -14 -10 -27 -7 -30 4 -3
10 -61 14 -130 4 -69 8 -134 9 -145 2 -18 -5 -20 -75 -23 l-78 -3 0 366 c0
406 -2 417 -61 430 -39 9 -45 2 -32 -39 6 -19 9 -57 7 -85 -2 -28 0 -51 5 -51
5 0 11 -13 15 -30 6 -35 -2 -90 -15 -90 -5 0 -6 7 -3 15 4 8 1 15 -6 15 -8 0
-10 -35 -8 -125 2 -85 0 -125 -8 -125 -11 0 -29 714 -18 731 9 15 353 10 389
-5z m4103 -123 l-3 -137 -65 2 c-36 2 -72 -2 -80 -8 -8 -5 -10 -10 -4 -10 7 0
14 -8 17 -19 2 -10 18 -24 36 -32 24 -11 31 -20 31 -41 0 -14 -6 -28 -12 -31
-8 -2 -2 -10 14 -17 15 -7 25 -17 21 -23 -3 -6 -1 -7 6 -3 14 9 41 -11 41 -30
0 -11 -20 -14 -86 -14 l-85 0 3 209 c3 192 5 211 23 231 32 36 77 60 113 60
l33 0 -3 -137z m290 40 l3 -93 -46 0 c-38 0 -52 -5 -76 -29 -19 -20 -29 -40
-29 -59 0 -47 -10 -62 -39 -62 -23 0 -26 -4 -25 -27 1 -37 -17 -95 -34 -109
-10 -7 -16 -53 -21 -170 -6 -124 -8 -71 -8 244 l-1 403 136 -3 137 -3 3 -92z
m-1306 -15 c-8 -8 -9 -4 -5 13 4 13 8 18 11 10 2 -7 -1 -18 -6 -23z m-3602 3
c0 -21 -26 -36 -36 -20 -9 15 3 39 21 39 8 0 15 -9 15 -19z m645 -29 c-8 -8
-35 20 -35 37 1 12 5 11 21 -8 11 -13 17 -26 14 -29z m2932 12 c-3 -3 -12 -4
-19 -1 -8 3 -5 6 6 6 11 1 17 -2 13 -5z m-2791 -49 c-4 -15 -1 -25 9 -29 10
-3 15 1 16 12 1 10 4 8 8 -8 l7 -24 23 32 c12 18 31 36 41 42 17 9 16 6 -3
-33 -12 -23 -26 -45 -32 -49 -6 -4 -2 -8 7 -8 10 0 34 -15 54 -34 l37 -35 7
-128 c4 -70 8 -118 8 -105 2 20 6 23 30 18 34 -7 463 -98 839 -177 155 -33
333 -72 395 -87 l113 -28 7 -94 c7 -89 -1 -1481 -8 -1489 -3 -4 -65 10 -151
35 l-53 15 1 167 c1 92 4 155 6 139 6 -36 36 -54 99 -61 59 -6 68 0 78 55 6
34 4 37 -21 43 -16 4 -61 16 -100 28 l-73 21 0 101 0 102 -98 22 -99 22 -6
107 c-4 58 -7 148 -7 198 0 89 -1 93 -22 93 -34 0 -330 63 -351 74 -17 9 -19
20 -15 92 l3 82 -159 31 c-87 18 -164 38 -171 45 -8 9 -15 68 -19 177 -3 96
-10 169 -17 177 -11 13 -86 38 -149 48 l-35 6 28 -13 c38 -18 87 -65 98 -94 6
-15 14 -22 21 -17 10 5 10 4 1 -6 -12 -13 -6 -43 7 -35 5 3 6 -4 3 -15 -3 -11
-1 -26 5 -33 6 -7 12 -41 13 -77 2 -36 9 -80 16 -97 7 -18 9 -33 4 -33 -5 0 2
-21 16 -47 21 -36 37 -51 74 -66 31 -13 45 -25 42 -34 -3 -7 1 -13 9 -13 8 0
22 -6 33 -13 16 -13 15 -14 -15 -9 -23 3 -31 1 -26 -7 4 -6 25 -11 47 -11 43
0 103 -26 131 -57 9 -10 26 -39 37 -63 18 -40 21 -66 21 -231 0 -184 0 -187
26 -225 41 -62 87 -105 103 -99 9 3 12 3 9 -1 -8 -7 34 -44 49 -44 19 0 125
-105 145 -143 14 -28 23 -72 28 -142 5 -55 6 -102 4 -104 -4 -5 -156 27 -163
35 -3 2 -8 49 -11 103 -8 136 -25 159 -129 182 -45 9 -54 16 -71 49 -24 46
-70 86 -110 95 -30 7 -70 47 -70 71 0 8 15 31 34 51 18 21 37 48 40 61 18 55
-51 164 -117 184 -21 6 -51 27 -67 45 -25 28 -30 42 -30 87 0 45 5 58 35 93
35 41 36 53 5 53 -33 0 -146 42 -168 63 -55 50 -66 91 -64 235 2 99 -1 134
-10 137 -7 2 -61 16 -120 31 l-108 27 0 163 c0 98 -4 165 -10 169 -6 4 -10 55
-10 121 0 80 3 113 11 108 6 -3 8 -16 5 -29z m2574 15 c0 -5 -10 -10 -22 -9
-22 0 -22 1 -3 9 11 5 21 9 23 9 1 1 2 -3 2 -9z m1597 -36 c-3 -3 -12 -4 -19
-1 -8 3 -5 6 6 6 11 1 17 -2 13 -5z m-3872 -66 c102 -24 144 -48 83 -48 -29 0
-41 -6 -62 -34 -15 -20 -26 -48 -26 -66 0 -18 -4 -29 -10 -25 -5 3 -10 -2 -10
-11 0 -26 -8 -13 -15 23 -3 18 1 50 9 72 7 22 11 43 8 46 -10 10 -51 5 -58 -7
-9 -14 -22 15 -23 50 -1 27 -7 27 104 0z m2955 2 c0 -13 -34 -30 -59 -30 -26
0 -27 -12 -1 -35 11 -10 19 -20 17 -21 -4 -4 -145 41 -152 48 -8 7 131 46 168
47 15 1 27 -3 27 -9z m-3085 -20 c3 -5 1 -10 -4 -10 -6 0 -11 5 -11 10 0 6 2
10 4 10 3 0 8 -4 11 -10z m2436 -63 c43 -33 50 -87 14 -122 -40 -41 -105 -33
-130 16 -21 40 -19 66 10 94 27 27 79 33 106 12z m-2687 -15 c51 -15 90 -43
76 -55 -9 -8 -135 17 -142 28 -5 6 -8 6 -8 0 0 -14 -20 17 -20 33 0 16 21 14
94 -6z m3716 -6 c0 -9 -28 -21 -80 -34 -63 -15 -80 -17 -80 -6 0 17 12 24 69
39 62 18 91 18 91 1z m-183 -48 c-3 -7 -5 -2 -5 12 0 14 2 19 5 13 2 -7 2 -19
0 -25z m5 -274 c-4 -15 -136 -55 -177 -53 -25 1 -2 9 98 34 l67 17 2 107 2
106 6 -100 c3 -55 4 -105 2 -111z m221 86 c2 -43 1 -66 -4 -55 -4 11 -8 49 -8
85 1 82 6 68 12 -30z m-398 55 c0 -17 -14 -23 -88 -42 -98 -24 -127 -43 -127
-83 0 -15 -3 -48 -6 -73 l-6 -45 -75 -11 c-40 -6 -83 -11 -93 -11 -31 0 -25
35 13 76 17 20 31 42 29 49 -1 8 3 17 9 21 8 4 9 3 5 -4 -11 -19 3 -14 38 13
18 14 39 25 46 25 7 0 11 2 8 5 -2 3 -47 -4 -99 -15 -52 -11 -97 -20 -101 -20
-5 0 -8 -40 -8 -90 0 -106 6 -100 -135 -124 -55 -10 -112 -19 -127 -22 -22 -4
-28 -2 -29 13 -1 10 -4 5 -8 -12 -6 -29 -10 -31 -91 -47 -47 -10 -134 -28
-195 -41 l-110 -23 -1 -50 c-1 -43 -1 -44 3 -7 l4 41 72 16 c40 9 82 19 95 22
22 6 22 5 22 -85 0 -50 -3 -90 -7 -89 -5 1 -34 -2 -66 -6 -61 -9 -101 -33
-114 -69 -6 -19 -8 -17 -14 18 -3 22 -7 -136 -8 -351 l-1 -392 -99 -27 c-97
-27 -99 -29 -90 -52 5 -13 9 -44 9 -69 0 -47 16 -58 40 -29 7 8 18 15 24 14
32 -4 48 2 43 15 -7 19 12 25 40 15 19 -7 22 -4 26 19 2 15 5 -41 6 -125 l1
-152 -38 -11 c-34 -9 -138 -30 -148 -30 -6 0 -4 -43 2 -68 6 -21 10 -22 53
-16 55 8 81 20 81 38 0 8 7 19 15 26 13 11 15 8 16 -16 l1 -29 8 30 c5 18 8
-28 9 -117 0 -82 -1 -148 -2 -148 -2 0 -48 -13 -103 -30 -54 -16 -102 -30
-105 -30 -4 0 -7 434 -8 965 l-2 965 23 10 c13 5 100 25 193 44 94 19 242 51
330 70 88 19 288 62 445 95 157 34 301 65 320 70 52 14 75 9 75 -14z m-3322
-5 c3 -11 1 -20 -4 -20 -5 0 -9 9 -9 20 0 11 2 20 4 20 2 0 6 -9 9 -20z m-336
-297 c-2 -16 -4 -5 -4 22 0 28 2 40 4 28 2 -13 2 -35 0 -50z m3433 -43 c0 -87
-9 -101 -75 -113 -16 -3 -73 -15 -124 -26 l-95 -20 -28 31 c-20 23 -28 27 -28
15 0 -9 5 -17 10 -17 11 0 13 -78 4 -157 l-7 -51 -86 -21 c-139 -34 -271 -59
-275 -52 -6 10 22 85 34 89 5 2 7 9 3 14 -4 7 2 9 15 6 12 -4 20 -2 16 3 -3 5
6 9 20 9 14 0 26 5 26 10 0 6 18 10 39 10 51 0 71 8 71 29 0 14 7 17 30 13 41
-6 80 5 80 23 0 8 5 15 12 15 6 0 9 3 6 6 -6 5 -187 -24 -285 -47 -64 -14 -64
-14 -62 44 3 60 10 69 64 87 22 7 56 21 76 31 20 10 39 15 43 12 3 -4 6 -1 6
6 0 7 4 10 8 7 11 -7 255 43 262 53 3 5 12 8 20 9 71 3 190 37 190 53 0 5 7 9
15 9 12 0 15 -16 15 -80z m821 -75 c25 8 72 -2 64 -14 -2 -5 6 -12 20 -15 14
-4 25 -11 25 -16 0 -12 -137 -14 -143 -2 -3 4 -2 43 2 87 l6 80 3 -63 c3 -58
5 -63 23 -57z m-3933 72 c71 -21 72 -21 72 -56 l0 -34 -22 20 c-13 12 -53 38
-90 58 -64 35 -90 55 -50 40 9 -3 50 -16 90 -28z m3672 29 c0 -2 -30 -21 -67
-41 -37 -20 -73 -44 -80 -53 -11 -15 -12 -13 -13 13 0 29 4 32 73 56 78 29 87
31 87 25z m-3422 -141 c3 -3 -10 -3 -29 0 -72 12 -119 28 -119 40 0 9 21 5 71
-11 40 -13 74 -26 77 -29z m3222 35 c-8 -5 -24 -10 -35 -10 -17 0 -17 2 -5 10
8 5 24 10 35 10 17 0 17 -2 5 -10z m-3403 -52 c-3 -8 -6 -5 -6 6 -1 11 2 17 5
13 3 -3 4 -12 1 -19z m2308 -418 l0 -264 -65 -17 c-36 -10 -76 -18 -89 -18
l-23 -1 4 233 c3 146 10 244 17 264 11 27 22 35 74 51 34 11 67 19 72 18 6 -2
10 -99 10 -266z m2393 194 c28 -19 28 -38 0 -64 -12 -11 -17 -20 -10 -20 16 0
4 -27 -15 -34 -60 -24 -95 81 -40 119 27 19 37 19 65 -1z m-3805 -275 c9 -6
17 -14 17 -19 0 -5 -12 -2 -27 6 -16 7 -32 14 -38 14 -27 0 -85 22 -80 30 5 9
93 -13 128 -31z m1707 16 c-46 -18 -64 -17 -25 0 17 8 37 14 45 14 8 0 -1 -7
-20 -14z m1958 -148 c20 -16 -38 -42 -125 -57 -54 -9 -82 -19 -110 -41 -34
-28 -38 -29 -44 -12 -3 10 -3 20 1 23 19 13 -4 80 -29 81 -12 0 -12 2 4 9 11
5 68 6 127 4 70 -3 109 -1 113 6 7 12 41 4 63 -13z m-2068 -27 c0 -5 -17 -14
-37 -19 -61 -17 -73 -11 -18 9 28 9 51 18 53 19 1 0 2 -3 2 -9z m-1447 -21
c21 -6 37 -12 34 -15 -9 -9 -137 18 -137 28 0 11 29 7 103 -13z m2402 3 c69
-17 191 -69 182 -78 -3 -4 -2 -16 4 -26 9 -16 1 -13 -36 12 -58 40 -145 76
-205 85 -72 10 -179 -19 -258 -71 -58 -38 -62 -39 -30 -11 20 19 54 42 75 53
21 10 41 22 44 27 7 10 86 25 129 24 19 0 62 -7 95 -15z m743 -9 c-3 -24 -8
-28 -41 -31 -35 -3 -38 -1 -35 19 2 15 12 26 28 30 46 13 51 10 48 -18z m216
-96 c35 -26 13 -112 -32 -124 -53 -13 -86 89 -40 121 27 19 48 20 72 3z
m-3394 -40 c8 -4 -1 -4 -20 -1 -44 8 -50 12 -50 30 0 13 5 12 28 -4 15 -10 34
-22 42 -25z m2765 0 l90 -3 -101 -2 c-55 -1 -103 1 -107 4 -3 3 -3 12 0 20 5
13 7 12 17 0 8 -11 36 -16 101 -19z m-2529 5 c23 -7 45 -19 48 -27 7 -19 -3
-47 -15 -39 -13 7 -7 -19 6 -28 6 -5 5 -8 -2 -8 -7 0 -13 -9 -13 -19 0 -11 -5
-23 -10 -26 -6 -4 -8 -11 -4 -16 3 -5 1 -16 -5 -23 -6 -6 -11 -40 -12 -73 -2
-61 -2 -61 -20 -40 l-18 22 -2 -25 c-3 -40 -4 -44 -12 -57 -4 -7 -7 -42 -5
-78 1 -38 -2 -69 -8 -73 -17 -11 -32 -46 -26 -61 3 -9 10 -1 20 20 l16 34 4
-30 c5 -37 25 -61 63 -74 23 -8 29 -7 29 4 0 30 -21 65 -47 79 -19 10 -22 15
-11 16 31 0 69 -43 71 -80 2 -34 1 -35 -36 -35 -25 0 -47 7 -62 20 -37 34 -45
29 -46 -27 -1 -45 -2 -49 -9 -23 -4 17 -8 57 -9 89 -1 45 3 62 17 73 16 14 16
14 0 9 -17 -5 -18 12 -18 254 l0 259 38 -3 c20 -1 56 -8 78 -14z m1759 -122
c-8 -30 -15 -66 -15 -78 0 -26 -59 -92 -81 -92 -9 0 -7 5 5 11 15 9 16 13 5
21 -10 6 -7 7 10 3 17 -5 22 -4 16 5 -5 8 -4 11 2 7 12 -7 28 29 38 83 8 46
26 102 31 98 2 -2 -3 -28 -11 -58z m-2386 -10 c11 -41 12 -66 5 -112 -6 -32
-8 -61 -6 -63 3 -2 4 -47 3 -100 -1 -61 2 -95 8 -95 6 0 11 -9 11 -21 0 -19 5
-20 67 -17 66 4 67 4 68 33 1 17 2 46 4 65 2 31 3 33 11 13 5 -12 10 -46 11
-75 3 -65 8 -88 21 -88 5 0 6 5 3 10 -3 6 -1 10 4 10 6 0 11 -7 11 -15 0 -8 2
-15 4 -15 2 0 12 -3 20 -6 12 -5 15 -2 10 12 -5 15 -3 14 10 -3 10 -13 28 -23
40 -23 27 0 36 -17 36 -66 0 -20 4 -33 9 -30 16 10 23 -27 22 -122 -1 -51 -2
-98 -4 -104 -1 -7 24 -21 56 -32 31 -12 57 -25 57 -29 0 -5 -6 -7 -13 -4 -7 2
-39 10 -72 17 -33 7 -63 16 -66 21 -3 5 -4 77 -2 160 2 112 0 151 -10 154 -6
2 -46 9 -87 17 -60 10 -74 16 -72 30 1 9 -2 19 -8 23 -5 3 -10 -1 -10 -9 0
-23 -23 -21 -157 9 l-23 5 0 256 c0 193 3 255 12 252 6 -2 18 -28 27 -58z
m121 16 c0 -3 -4 -8 -10 -11 -5 -3 -10 -1 -10 4 0 6 5 11 10 11 6 0 10 -2 10
-4z m10 -34 c0 -5 -7 -9 -15 -9 -8 0 -12 4 -9 9 3 4 9 8 15 8 5 0 9 -4 9 -8z
m-1170 -34 c57 -29 94 -94 85 -148 -24 -135 -162 -201 -256 -123 -80 68 -91
183 -23 245 58 52 124 61 194 26z m4595 2 c69 -34 100 -121 43 -120 -13 1 -34
7 -48 15 -33 19 -50 18 -25 -1 11 -8 20 -18 20 -22 1 -4 6 -17 13 -29 10 -19
16 -20 44 -12 18 5 35 9 37 9 2 0 1 -26 -3 -57 -15 -129 -119 -212 -276 -221
-97 -6 -152 11 -248 73 -100 64 -145 80 -227 80 -91 -1 -162 -33 -230 -104
-27 -29 -68 -65 -90 -81 -40 -28 -139 -63 -149 -53 -2 3 16 21 42 40 61 45 89
78 115 133 12 25 21 47 22 50 0 3 4 11 9 19 7 10 6 12 -4 6 -10 -6 -12 3 -8
43 11 111 145 212 283 212 51 0 143 -24 196 -51 22 -11 59 -40 82 -64 50 -52
81 -66 128 -56 33 7 34 8 31 51 -4 58 27 107 88 138 55 27 101 28 155 2z
m-3469 -12 c8 -9 -19 -48 -33 -48 -7 0 -13 -9 -13 -20 0 -11 -4 -20 -9 -20 -6
0 -9 94 -2 95 9 3 52 -3 57 -7z m3974 -36 c-1 -33 -70 -50 -70 -18 0 27 29 47
51 36 10 -6 19 -14 19 -18z m-1385 -6 c0 -26 -33 -46 -45 -27 -12 20 7 53 28
49 9 -2 17 -12 17 -22z m-2575 4 c0 -5 -4 -10 -10 -10 -5 0 -10 5 -10 10 0 6
5 10 10 10 6 0 10 -4 10 -10z m163 -54 c3 3 8 -4 12 -16 5 -15 2 -26 -6 -31
-10 -6 -11 -9 -1 -9 6 0 12 -5 12 -11 0 -8 -15 -9 -47 -4 -83 12 -96 29 -73
90 l10 27 44 -26 c24 -14 46 -23 49 -20z m1968 -211 l3 -70 -35 -11 c-19 -7
-54 -14 -79 -18 l-45 -6 55 21 c30 12 61 21 68 22 8 0 11 8 9 19 -3 10 -1 21
4 24 5 3 9 26 9 51 0 71 8 47 11 -32z m-188 -53 c-10 -26 -17 -52 -15 -59 1
-7 -21 -16 -55 -23 -32 -6 -69 -14 -82 -17 -16 -4 -22 -2 -17 5 3 6 31 16 62
22 31 7 53 14 50 17 -3 4 0 13 7 21 10 13 7 15 -23 9 -35 -6 -35 -6 8 13 23
11 44 25 46 32 2 7 10 33 17 58 l14 45 3 -38 c2 -21 -5 -59 -15 -85z m-1113
-193 c0 -87 -3 -159 -7 -159 -5 0 -52 10 -105 22 l-98 23 1 130 c1 72 3 122 6
113 4 -17 20 -20 103 -20 66 0 70 2 76 32 14 68 24 9 24 -141z m1137 135 c-3
-3 -12 -4 -19 -1 -8 3 -5 6 6 6 11 1 17 -2 13 -5z m-1512 -14 c3 -5 1 -10 -4
-10 -6 0 -11 5 -11 10 0 6 2 10 4 10 3 0 8 -4 11 -10z m-380 -146 c3 -13 15
-24 30 -28 14 -4 25 -14 25 -22 0 -11 -5 -14 -16 -10 -9 3 -24 6 -35 6 -17 0
-19 7 -17 88 1 51 3 66 5 37 2 -27 5 -60 8 -71z m1685 -53 l0 -149 -65 -12
c-80 -15 -96 -8 -21 9 61 13 61 14 71 104 5 47 3 57 -10 57 -8 0 -15 5 -15 11
0 6 7 9 15 5 12 -4 15 6 15 59 0 36 2 65 5 65 3 0 5 -67 5 -149z m170 34 c0
-17 -5 -25 -17 -24 -11 0 -13 3 -5 6 6 2 12 13 12 24 0 10 2 19 5 19 3 0 5
-11 5 -25z m-3060 -5 c0 -5 -5 -10 -11 -10 -5 0 -7 5 -4 10 3 6 8 10 11 10 2
0 4 -4 4 -10z m1321 -37 c13 -15 11 -16 -11 -10 -14 4 -29 7 -35 7 -10 0 15
20 26 20 4 0 13 -8 20 -17z m-1100 -21 c-6 -10 -30 -35 -55 -55 -27 -23 -47
-48 -51 -67 -4 -17 -10 -30 -13 -30 -4 0 -36 27 -71 60 -50 46 -60 59 -43 57
12 -1 22 -5 22 -9 0 -4 7 -4 17 -1 12 5 14 3 8 -7 -5 -8 -4 -11 3 -6 15 9 64
-15 58 -30 -3 -8 1 -11 10 -7 8 3 13 8 10 10 -4 4 101 100 112 102 1 1 -2 -7
-7 -17z m2537 -24 c16 -16 15 -28 -3 -28 -8 0 -15 2 -15 4 0 2 -3 11 -6 20 -7
19 7 21 24 4z m-1211 -40 c-3 -7 -5 -2 -5 12 0 14 2 19 5 13 2 -7 2 -19 0 -25z
m1704 -9 c39 -42 41 -104 3 -140 -35 -33 -98 -33 -125 0 -21 26 -25 81 -8 112
11 22 66 59 87 59 8 0 27 -14 43 -31z m-825 -24 c6 -16 -12 -45 -28 -45 -15 0
-21 30 -8 45 16 19 29 19 36 0z m-111 -101 c0 -53 2 -99 5 -103 3 -4 22 0 44
9 24 11 33 20 25 23 -8 4 -2 4 14 1 15 -4 43 -3 62 0 l34 7 4 67 3 67 2 -80 2
-80 -88 -26 c-48 -14 -95 -29 -104 -34 -17 -7 -18 3 -18 119 0 69 3 126 8 126
4 0 7 -43 7 -96z m-768 24 c-3 -7 -5 -2 -5 12 0 14 2 19 5 13 2 -7 2 -19 0
-25z m0 -130 c-2 -24 -4 -7 -4 37 0 44 2 63 4 43 2 -21 2 -57 0 -80z m-1752
92 c-3 -5 -12 -10 -18 -10 -7 0 -6 4 3 10 19 12 23 12 15 0z m2053 -87 c15 -9
43 -35 63 -57 l36 -41 5 -202 5 -203 -26 1 c-14 0 -60 10 -101 22 l-75 22 -3
213 -2 213 24 24 c30 29 39 30 74 8z m-263 -113 c18 -14 31 -28 29 -32 -2 -3
6 -4 18 -1 19 4 20 3 8 -6 -13 -9 -13 -11 2 -11 18 0 91 -40 85 -46 -4 -4
-132 20 -169 32 -15 4 -18 16 -17 67 1 34 4 53 6 42 2 -11 19 -31 38 -45z
m1128 -47 c-4 -11 -122 -43 -159 -43 -23 0 -12 10 17 15 96 18 113 31 125 98
l8 42 6 -50 c4 -27 5 -55 3 -62z m-394 -111 c1 -66 5 -101 11 -97 6 3 10 2 10
-3 0 -5 7 -9 15 -9 8 0 15 7 15 14 0 8 8 13 18 12 9 -1 36 2 59 6 l42 7 4 77
c2 47 4 24 5 -61 l2 -136 -89 -21 c-49 -12 -94 -21 -100 -21 -8 0 -11 63 -10
223 1 148 4 204 9 167 5 -30 8 -101 9 -158z m-669 168 c0 -5 -9 -10 -20 -10
-11 0 -20 5 -20 10 0 6 9 10 20 10 11 0 20 -4 20 -10z m1020 -10 c0 -5 -4 -10
-10 -10 -5 0 -10 5 -10 10 0 6 5 10 10 10 6 0 10 -4 10 -10z m-1630 -190 c-8
-5 -19 -10 -25 -10 -5 0 -3 5 5 10 8 5 20 10 25 10 6 0 3 -5 -5 -10z m35 -21
c-3 -5 2 -6 11 -2 12 4 15 3 10 -5 -4 -8 -2 -10 8 -6 24 9 86 -62 87 -99 0
-23 2 -27 7 -14 6 13 11 6 21 -30 17 -60 54 -135 75 -152 9 -8 16 -22 16 -33
0 -10 7 -21 16 -25 8 -3 13 -12 10 -19 -3 -9 0 -11 11 -7 12 5 15 2 10 -10 -4
-11 -1 -17 7 -17 19 0 139 -60 133 -67 -9 -9 -102 26 -148 56 -93 60 -144 128
-183 247 -21 65 -67 138 -100 160 -24 15 -39 43 -16 29 6 -3 10 -1 10 5 0 6 5
8 10 5 6 -4 8 -11 5 -16z m-312 -56 c-7 -2 -19 -2 -25 0 -7 3 -2 5 12 5 14 0
19 -2 13 -5z m892 -458 c17 -8 41 -17 55 -20 28 -8 92 -64 85 -75 -3 -4 2 -13
10 -20 8 -7 15 -19 15 -26 0 -8 5 -14 10 -14 6 0 10 -23 10 -51 0 -33 9 -70
25 -106 14 -30 24 -57 22 -60 -9 -8 -67 120 -67 146 0 39 -43 122 -81 157 -39
37 -113 74 -145 74 -13 0 -26 4 -29 10 -7 12 48 3 90 -15z m848 -77 c-13 -12
-26 -19 -29 -15 -4 4 1 14 12 22 29 22 41 18 17 -7z m-43 -66 c-10 -20 -21
-54 -25 -74 -9 -46 -35 -60 -35 -18 0 16 5 32 10 35 6 4 9 12 8 18 -3 19 31
77 46 77 11 0 10 -8 -4 -38z m-140 -236 c0 -38 -21 -56 -91 -77 -112 -34 -214
-18 -290 45 -23 20 -30 54 -8 40 13 -8 11 10 -3 26 -11 12 -10 12 5 1 11 -9
15 -21 12 -32 -4 -11 -2 -19 4 -19 6 0 11 5 11 11 0 8 4 9 13 0 8 -6 17 -8 21
-4 4 4 4 -1 0 -11 -5 -13 -4 -17 3 -13 6 4 19 0 28 -9 34 -34 167 -40 238 -11
33 14 37 55 7 82 -11 10 -20 27 -20 37 0 16 6 13 35 -15 19 -19 35 -42 35 -51z
m-312 52 c-6 -18 -28 -21 -28 -4 0 9 7 16 16 16 9 0 14 -5 12 -12z"/>
<path d="M4832 6155 c0 -16 2 -22 5 -12 2 9 2 23 0 30 -3 6 -5 -1 -5 -18z"/>
<path d="M4718 6133 c7 -3 16 -2 19 1 4 3 -2 6 -13 5 -11 0 -14 -3 -6 -6z"/>
<path d="M4530 6000 c0 -5 4 -10 9 -10 6 0 13 5 16 10 3 6 -1 10 -9 10 -9 0
-16 -4 -16 -10z"/>
<path d="M2079 4848 c-6 -23 -7 -48 -1 -48 11 0 32 37 25 44 -6 6 -22 8 -24 4z"/>
<path d="M2141 4834 c0 -11 3 -14 6 -6 3 7 2 16 -1 19 -3 4 -6 -2 -5 -13z"/>
<path d="M3630 3601 c0 -5 9 -7 20 -4 11 3 20 7 20 9 0 2 -9 4 -20 4 -11 0
-20 -4 -20 -9z"/>
<path d="M3615 3430 c-3 -5 -1 -10 4 -10 6 0 11 5 11 10 0 6 -2 10 -4 10 -3 0
-8 -4 -11 -10z"/>
<path d="M5033 3820 c0 -25 2 -35 4 -22 2 12 2 32 0 45 -2 12 -4 2 -4 -23z"/>
<path d="M5100 3440 c0 -5 5 -10 11 -10 5 0 7 5 4 10 -3 6 -8 10 -11 10 -2 0
-4 -4 -4 -10z"/>
<path d="M6867 2673 c3 -7 9 -13 13 -13 4 0 12 6 18 13 8 9 5 12 -13 12 -14 0
-21 -5 -18 -12z"/>
<path d="M3672 2320 c0 -14 2 -19 5 -12 2 6 2 18 0 25 -3 6 -5 1 -5 -13z"/>
<path d="M3882 1554 c-20 -14 -22 -23 -22 -113 0 -115 7 -161 26 -161 7 0 19
-8 26 -17 14 -19 84 -29 105 -16 7 5 14 52 19 119 l7 110 -53 47 c-56 51 -73
56 -108 31z"/>
<path d="M7585 7060 c-4 -6 -4 -34 0 -61 7 -49 6 -52 -32 -93 -22 -22 -47 -53
-56 -67 l-16 -27 46 14 c77 23 107 19 142 -22 28 -31 32 -42 29 -82 l-3 -46
-120 -28 c-66 -15 -125 -27 -130 -28 -6 0 -12 28 -13 62 -2 35 -6 65 -9 68 -6
6 -185 -181 -179 -187 2 -2 45 6 96 18 115 27 120 24 123 -81 l2 -73 -125 -28
c-68 -15 -125 -27 -126 -26 -1 1 -5 35 -10 76 l-9 73 -52 -63 c-29 -35 -73
-86 -97 -113 -25 -26 -39 -45 -30 -42 8 3 53 14 100 23 82 17 86 17 99 0 7
-10 16 -44 19 -75 4 -31 9 -64 12 -73 3 -12 -12 -19 -68 -32 -40 -10 -100 -26
-133 -36 -33 -10 -63 -17 -67 -14 -5 2 -8 32 -9 66 0 53 -16 129 -18 88 -1
-15 -43 -69 -112 -143 -79 -83 -78 -80 -17 -72 67 9 112 22 83 23 -19 2 -19 2
-2 12 13 7 21 6 32 -5 8 -8 23 -17 34 -21 15 -4 20 -22 29 -98 6 -50 7 -95 4
-98 -8 -8 -224 -59 -247 -59 -12 0 -15 17 -15 89 0 50 -3 92 -8 95 -4 2 -33
-26 -64 -62 -32 -37 -83 -93 -114 -126 -45 -47 -51 -57 -32 -53 13 4 68 13
122 22 104 17 115 14 116 -26 0 -9 3 -37 6 -63 5 -32 3 -46 -5 -46 -7 0 -9 5
-6 10 3 6 -2 10 -11 10 -14 0 -15 3 -6 12 17 17 15 56 -5 77 -17 18 -21 18
-108 1 -49 -9 -98 -21 -107 -25 -11 -4 -18 -3 -18 4 0 6 -4 11 -10 11 -5 0
-10 -6 -10 -14 0 -7 -28 -35 -61 -61 l-62 -48 49 -46 c27 -24 126 -118 221
-208 95 -90 177 -163 182 -163 6 0 9 27 8 66 -2 62 0 68 24 83 15 9 63 47 107
84 68 57 82 74 87 105 10 55 13 62 34 70 34 13 201 180 201 201 0 31 18 71 32
71 8 0 55 42 105 93 71 72 94 101 103 135 6 23 17 42 24 42 8 0 57 42 110 93
81 77 96 97 96 123 0 32 15 54 38 54 8 0 36 19 61 43 25 23 59 52 75 65 16 12
31 36 35 54 6 31 10 33 56 39 47 5 53 10 137 100 52 55 88 102 88 114 0 12
-19 40 -43 63 l-43 43 -28 -22 c-28 -22 -28 -22 -15 -1 12 18 11 24 -8 44 -11
13 -18 29 -16 36 4 10 -3 13 -23 10 -29 -3 -45 -25 -111 -151 l-29 -54 -124
114 c-159 147 -197 176 -205 163z m-149 -889 c-3 -5 -27 -12 -53 -16 -27 -3
-59 -9 -73 -12 -14 -3 -22 -3 -19 1 4 4 35 13 70 21 80 17 81 17 75 6z m-229
-287 c-3 -3 -12 -4 -19 -1 -8 3 -5 6 6 6 11 1 17 -2 13 -5z m-117 -24 c-34
-11 -60 -11 -35 0 11 5 29 8 40 8 16 0 15 -2 -5 -8z m-390 -172 c0 -4 -6 -8
-14 -8 -8 0 -17 4 -20 8 -2 4 4 8 15 8 10 0 19 -4 19 -8z m15 -78 c-11 -5 -31
-9 -45 -9 -20 -1 -22 1 -10 9 8 5 29 9 45 9 26 0 27 -2 10 -9z m-78 -16 c-3
-3 -12 -4 -19 -1 -8 3 -5 6 6 6 11 1 17 -2 13 -5z"/>
<path d="M4688 7053 c7 -3 16 -2 19 1 4 3 -2 6 -13 5 -11 0 -14 -3 -6 -6z"/>
<path d="M7800 6930 c0 -11 4 -20 9 -20 11 0 22 26 14 34 -12 12 -23 5 -23
-14z"/>
<path d="M5310 6807 l0 -107 26 0 c20 0 24 3 16 13 -5 6 -13 41 -16 77 -13
150 -26 158 -26 17z"/>
<path d="M4052 6770 c0 -19 2 -27 5 -17 2 9 2 25 0 35 -3 9 -5 1 -5 -18z"/>
<path d="M4036 6671 c-4 -5 -31 -15 -62 -21 -31 -7 -54 -14 -51 -16 5 -6 120
17 130 26 5 4 4 11 -1 14 -6 3 -13 2 -16 -3z"/>
<path d="M5472 6641 c-10 -6 -6 -13 15 -26 28 -18 28 -18 10 2 -9 11 -14 23
-10 26 9 9 1 8 -15 -2z"/>
<path d="M7255 6453 c-31 -7 -40 -21 -11 -16 15 3 29 9 32 14 3 5 4 8 2 8 -2
-1 -12 -3 -23 -6z"/>
<path d="M4000 6434 c-25 -7 -39 -13 -32 -13 7 -1 12 -14 12 -32 0 -17 4 -28
10 -24 6 3 10 2 10 -4 0 -5 -9 -13 -20 -16 -21 -7 -28 -25 -10 -25 6 0 10 -12
10 -27 0 -22 -2 -25 -11 -13 -8 12 -9 10 -7 -10 1 -14 -1 -30 -5 -36 -5 -8 7
-10 41 -6 26 2 49 6 50 8 8 6 12 214 5 213 -4 -1 -28 -7 -53 -15z m5 -192 c-3
-3 -11 0 -18 7 -9 10 -8 11 6 5 10 -3 15 -9 12 -12z"/>
<path d="M5970 6322 c0 -6 7 -13 16 -16 8 -3 12 -11 8 -17 -4 -8 -3 -9 5 -5 6
4 18 2 26 -4 8 -7 15 -10 15 -7 0 2 -16 17 -35 31 -19 15 -35 23 -35 18z"/>
<path d="M4260 6208 l-5 -97 28 -4 c15 -2 27 0 27 5 0 4 -7 8 -17 8 -9 0 -13
3 -10 7 9 8 58 -18 51 -28 -2 -4 -1 -10 4 -13 4 -2 8 11 7 31 0 26 -5 38 -18
42 -10 4 -18 10 -18 14 3 22 -1 27 -18 27 -17 0 -20 8 -23 53 -3 37 -5 25 -8
-45z m70 -68 c18 -12 2 -12 -25 0 -13 6 -15 9 -5 9 8 0 22 -4 30 -9z"/>
<path d="M5706 6292 c-2 -4 4 -9 15 -9 11 -1 17 2 14 8 -7 11 -22 12 -29 1z"/>
<path d="M6100 6296 c0 -2 8 -10 18 -17 15 -13 16 -12 3 4 -13 16 -21 21 -21
13z"/>
<path d="M3111 6227 c-8 -11 -6 -18 9 -32 20 -18 21 -18 18 13 -2 35 -9 39
-27 19z"/>
<path d="M6055 6230 c3 -5 8 -10 11 -10 2 0 4 5 4 10 0 6 -5 10 -11 10 -5 0
-7 -4 -4 -10z"/>
<path d="M2710 6105 c-56 -18 -134 -76 -177 -133 -38 -50 -44 -92 -14 -92 39
0 70 19 77 47 9 38 38 69 108 114 65 43 99 48 149 23 48 -24 67 -53 67 -102 0
-33 -5 -48 -22 -61 -14 -12 -16 -18 -7 -18 8 0 26 -4 41 -8 38 -10 78 31 78
80 0 124 -147 197 -300 150z m140 -5 c0 -5 -2 -10 -4 -10 -3 0 -8 5 -11 10 -3
6 -1 10 4 10 6 0 11 -4 11 -10z"/>
<path d="M4311 6034 c0 -11 3 -14 6 -6 3 7 2 16 -1 19 -3 4 -6 -2 -5 -13z"/>
<path d="M2351 6021 c-12 -22 -32 -105 -23 -96 7 7 41 115 36 115 -2 0 -8 -8
-13 -19z"/>
<path d="M3290 6028 c0 -11 12 -10 30 2 12 7 10 9 -8 7 -12 0 -22 -5 -22 -9z"/>
<path d="M3411 5998 c-2 -36 0 -40 13 -29 9 8 53 24 97 37 88 25 116 40 59 30
-87 -16 -140 -18 -153 -8 -10 9 -14 3 -16 -30z"/>
<path d="M3198 5996 c-6 -31 -3 -32 29 -6 14 11 21 20 15 20 -6 0 -17 3 -25 6
-10 3 -16 -3 -19 -20z"/>
<path d="M3177 5870 c-10 -27 -29 -63 -43 -80 -78 -92 -234 -97 -280 -9 -9 18
-14 42 -12 54 4 18 1 21 -14 17 -27 -7 -31 -19 -14 -44 9 -13 16 -43 16 -69 0
-52 7 -48 -100 -65 l-45 -8 75 -8 c188 -20 304 -137 324 -327 4 -36 16 -82 27
-103 22 -42 62 -74 80 -62 8 4 9 3 5 -4 -9 -14 35 -26 63 -17 12 3 21 14 21
24 0 10 13 44 28 75 16 31 25 56 21 56 -5 0 -16 -14 -24 -30 -9 -18 -21 -28
-27 -24 -7 5 -9 0 -5 -15 5 -19 3 -20 -11 -9 -13 11 -15 11 -10 -4 6 -14 4
-15 -19 -3 -32 17 -51 9 -26 -11 16 -13 15 -13 -9 -3 -15 7 -25 16 -22 20 3 5
0 9 -5 9 -6 0 -11 10 -11 23 0 21 13 28 98 60 113 43 122 45 96 15 l-19 -23
23 19 c12 11 20 22 17 25 -3 2 7 10 21 16 27 10 27 12 25 93 -2 81 -2 82 28
100 28 17 29 20 17 38 -14 18 -15 18 -21 2 -10 -25 -25 -22 -26 5 -1 17 -2 18
-6 4 -4 -15 -7 -16 -20 -5 -32 26 -39 18 -35 -43 4 -56 3 -60 -31 -94 -43 -43
-98 -48 -141 -14 -26 21 -27 22 -24 137 l3 117 72 29 c79 32 89 44 23 26 -62
-17 -89 -8 -82 27 5 25 6 25 13 8 5 -14 8 -15 8 -4 1 8 -4 20 -10 26 -7 7 -7
23 1 53 16 59 8 59 -13 0z"/>
<path d="M3405 5820 c-10 -11 -15 -23 -12 -27 7 -6 36 25 37 40 0 11 -6 8 -25
-13z"/>
<path d="M4045 5785 c-9 -55 -12 -60 -40 -66 -29 -6 -29 -7 8 -8 l38 -1 -3
-97 -3 -96 -48 -16 c-27 -9 -45 -20 -40 -24 4 -5 0 -5 -9 -2 -16 6 -216 -29
-226 -40 -8 -7 -3 -7 88 11 45 8 87 13 93 10 7 -2 0 -5 -15 -5 -16 -1 -28 -5
-28 -11 0 -5 -13 -10 -30 -10 -17 0 -30 -5 -30 -12 0 -9 -3 -9 -8 -2 -4 6 -18
8 -32 4 -24 -6 -23 -6 10 -20 19 -8 58 -29 86 -48 l51 -33 37 25 c33 22 75 34
166 49 20 4 19 5 -7 6 -18 0 -34 2 -35 4 -1 1 -4 101 -7 222 -5 192 -7 212
-16 160z"/>
<path d="M3355 5790 c-3 -5 -2 -10 4 -10 5 0 13 5 16 10 3 6 2 10 -4 10 -5 0
-13 -4 -16 -10z"/>
<path d="M4263 5665 c0 -22 2 -30 4 -17 2 12 2 30 0 40 -3 9 -5 -1 -4 -23z"/>
<path d="M2648 5653 c6 -2 18 -2 25 0 6 3 1 5 -13 5 -14 0 -19 -2 -12 -5z"/>
<path d="M3622 5620 c0 -14 2 -19 5 -12 2 6 2 18 0 25 -3 6 -5 1 -5 -13z"/>
<path d="M4262 5600 c0 -14 2 -19 5 -12 2 6 2 18 0 25 -3 6 -5 1 -5 -13z"/>
<path d="M3610 5502 c0 -40 -4 -52 -17 -55 -11 -3 -7 -5 10 -6 l28 -1 -7 53
c-9 69 -14 72 -14 9z"/>
<path d="M3533 5433 c9 -2 23 -2 30 0 6 3 -1 5 -18 5 -16 0 -22 -2 -12 -5z"/>
<path d="M4043 5190 c-28 -11 -29 -24 -3 -57 11 -14 29 -57 41 -95 27 -91 77
-147 173 -192 82 -39 153 -56 234 -56 59 0 95 14 207 80 41 25 61 30 115 30
68 0 133 -22 159 -53 7 -10 17 -17 22 -17 20 0 7 41 -22 75 -57 64 -145 69
-270 14 -95 -41 -161 -47 -246 -21 -69 22 -143 72 -143 98 0 11 4 12 19 5 10
-6 21 -7 25 -4 3 3 6 1 6 -6 0 -7 7 -11 15 -8 8 4 17 3 19 -2 8 -12 140 -34
172 -28 54 10 119 30 124 38 12 18 126 49 177 49 116 0 243 -112 243 -214 0
-24 -5 -36 -17 -39 -12 -3 -8 -5 9 -6 15 0 39 4 55 10 28 11 28 11 6 22 -15 6
-23 19 -23 34 0 61 -79 157 -166 201 -101 52 -163 50 -298 -10 -55 -24 -86
-32 -136 -32 -86 -1 -144 22 -245 99 -45 35 -96 70 -113 79 -34 17 -103 20
-139 6z m128 -96 c13 -14 25 -32 27 -42 12 -55 13 -70 4 -76 -11 -7 -16 7 -26
66 -5 25 -17 45 -39 62 -25 20 -27 24 -10 20 12 -3 32 -17 44 -30z"/>
<path d="M1519 4948 c-5 -18 -6 -38 -1 -34 7 8 12 36 6 36 -2 0 -4 -1 -5 -2z"/>
<path d="M2417 4846 c4 -19 12 -26 29 -26 13 0 24 -4 24 -8 0 -5 19 -15 43
-22 58 -19 63 -22 41 -31 -17 -7 -17 -8 -1 -8 13 -1 17 -10 17 -38 0 -75 17
-65 23 14 3 43 2 81 -2 86 -4 4 -38 16 -77 26 -38 11 -76 23 -85 26 -13 5 -15
1 -12 -19z m83 -16 c18 -12 2 -12 -25 0 -13 6 -15 9 -5 9 8 0 22 -4 30 -9z"/>
<path d="M7549 4241 c-26 -27 -30 -37 -25 -63 9 -46 24 -58 70 -58 102 0 118
127 19 146 -27 5 -37 1 -64 -25z"/>
<path d="M1745 3780 c10 -11 20 -20 23 -20 3 0 -3 9 -13 20 -10 11 -20 20 -23
20 -3 0 3 -9 13 -20z"/>
<path d="M2305 3226 c-60 -19 -101 -43 -124 -72 -33 -41 -25 -49 14 -15 20 17
42 31 50 31 7 0 15 4 17 10 9 28 208 35 273 10 34 -14 89 -74 118 -131 21 -39
27 -46 22 -24 -13 61 -47 115 -92 147 -82 55 -188 72 -278 44z"/>
<path d="M5995 3190 c17 -4 48 -8 70 -8 34 0 36 1 15 8 -14 4 -45 8 -70 8 -40
0 -42 -1 -15 -8z"/>
<path d="M1592 3130 c5 -23 79 -90 118 -106 55 -24 171 -45 210 -40 19 3 63 8
98 11 131 12 98 21 -74 21 -205 -1 -232 6 -313 86 -23 24 -41 36 -39 28z"/>
<path d="M7390 2220 c-43 -43 -14 -120 45 -120 70 0 92 71 37 117 -33 28 -56
29 -82 3z"/>
<path d="M1833 1645 c0 -8 4 -12 9 -9 5 3 6 10 3 15 -9 13 -12 11 -12 -6z"/>
<path d="M1780 1606 c0 -2 7 -7 16 -10 8 -3 12 -2 9 4 -6 10 -25 14 -25 6z"/>
<path d="M2365 1593 c-53 -8 -52 -23 1 -19 27 2 70 0 97 -4 26 -4 47 -5 47 -3
0 2 -16 11 -35 19 -34 14 -52 15 -110 7z"/>
<path d="M1785 1560 c-3 -5 -1 -10 6 -10 7 0 9 -3 6 -6 -9 -10 12 -46 24 -39
14 9 11 19 -10 44 -12 13 -22 18 -26 11z"/>
<path d="M2394 1435 c-8 -20 13 -45 38 -45 24 0 34 26 18 45 -16 19 -49 19
-56 0z"/>
<path d="M2533 1399 c-39 -25 -60 -56 -68 -103 -6 -30 -3 -41 14 -59 12 -12
32 -35 45 -51 19 -24 26 -27 42 -18 17 10 17 11 2 12 -25 0 -58 36 -58 63 0
29 34 58 69 59 25 1 26 3 25 49 -3 75 -15 84 -71 48z"/>
<path d="M1550 1320 c0 -5 5 -10 11 -10 5 0 7 5 4 10 -3 6 -8 10 -11 10 -2 0
-4 -4 -4 -10z"/>
<path d="M1510 1280 c-12 -7 -12 -10 -1 -10 8 0 11 -6 7 -16 -3 -8 -2 -12 3
-9 7 4 13 47 6 45 0 0 -7 -5 -15 -10z"/>
<path d="M1459 1224 c-23 -25 -23 -26 -2 -15 23 12 38 29 31 37 -3 2 -15 -8
-29 -22z"/>
<path d="M5276 1230 c-68 -22 -108 -56 -143 -123 -30 -60 -24 -73 10 -20 35
53 73 94 81 86 3 -3 6 0 6 8 0 9 29 25 78 41 86 30 60 36 -32 8z"/>
<path d="M2723 1213 c9 -2 23 -2 30 0 6 3 -1 5 -18 5 -16 0 -22 -2 -12 -5z"/>
<path d="M1665 1189 c-4 -6 -12 -8 -19 -6 -7 3 -13 -4 -13 -15 -2 -20 -1 -20
23 2 13 13 24 25 24 27 0 7 -9 2 -15 -8z"/>
<path d="M1456 1182 c-2 -4 -1 -14 4 -22 7 -11 9 -9 7 8 -1 24 -3 26 -11 14z"/>
<path d="M1418 1163 c7 -3 16 -2 19 1 4 3 -2 6 -13 5 -11 0 -14 -3 -6 -6z"/>
<path d="M6764 1025 c-8 -33 12 -57 45 -53 32 4 39 32 15 59 -24 27 -52 24
-60 -6z"/>
<path d="M5096 1023 c-6 -14 -5 -15 5 -6 7 7 10 15 7 18 -3 3 -9 -2 -12 -12z"/>
<path d="M2722 959 c-19 -7 -22 -13 -16 -31 4 -13 8 -74 8 -135 1 -107 2 -114
27 -139 73 -73 210 -13 234 103 14 70 -42 170 -112 199 -37 16 -107 17 -141 3z"/>
<path d="M5674 957 c-33 -19 -73 -71 -89 -117 -17 -48 -20 -176 -5 -185 6 -3
10 -17 10 -29 0 -34 106 -141 165 -166 57 -24 87 -25 154 -3 73 23 125 78 141
148 4 19 7 35 5 35 -2 0 -26 -16 -55 -35 -80 -54 -153 -44 -217 28 -38 43 -54
95 -50 160 3 45 10 62 26 62 14 0 61 44 52 49 -5 3 -12 0 -15 -6 -4 -7 -4 -3
-2 10 2 12 -1 22 -7 22 -6 0 -7 3 -4 7 4 3 2 12 -4 20 -14 16 -77 17 -105 0z
m75 -29 c11 -7 16 -18 13 -30 -3 -14 -1 -17 14 -11 17 6 18 5 5 -11 -14 -17
-15 -17 -28 0 -8 11 -13 13 -13 5 0 -19 -44 -9 -48 12 -8 43 19 59 57 35z"/>
<path d="M6346 652 c-3 -5 1 -9 9 -9 8 0 12 4 9 9 -3 4 -7 8 -9 8 -2 0 -6 -4
-9 -8z"/>
<path d="M6316 635 c-9 -25 -7 -55 4 -55 5 0 16 -15 23 -32 8 -18 20 -38 28
-44 38 -30 139 -20 139 14 0 8 3 13 6 9 10 -9 30 15 38 46 8 33 -11 37 -24 5
-5 -13 -9 -17 -9 -9 -1 11 -6 10 -26 -3 -52 -34 -117 -13 -151 47 -17 30 -23
35 -28 22z"/>
<path d="M6416 608 c3 -5 10 -6 15 -3 13 9 11 12 -6 12 -8 0 -12 -4 -9 -9z"/>
<path d="M2722 488 c-20 -20 -14 -56 13 -74 23 -15 27 -15 50 0 30 19 32 46 7
69 -22 20 -53 22 -70 5z"/>
<path d="M5634 286 c-9 -24 4 -48 23 -44 12 2 18 12 18 28 0 29 -32 41 -41 16z"/>
</g>
</svg>
