<svg width="530" height="530" viewBox="0 0 530 530" fill="none" xmlns="http://www.w3.org/2000/svg">
<g clip-path="url(#clip0_2123_38189)">
<rect width="530" height="530" rx="265" fill="#0F1216"/>
<path d="M126.772 312.225C115.109 337.978 80.9556 397.033 37.65 427.236C-16.4819 464.991 -43.4231 511.797 -65.2535 560.033C-87.0838 608.269 -119.292 671.235 -188.064 718.519C-243.081 756.346 -293.882 841.255 -312.406 878.981" stroke="#FFC700" stroke-width="32" stroke-linecap="round"/>
<path d="M149.643 329.948C137.98 355.7 103.827 414.756 60.5211 444.959C6.38917 482.713 -20.552 529.519 -42.3824 577.755C-64.2127 625.992 -96.4209 688.958 -165.193 736.242C-220.21 774.069 -271.011 858.978 -289.534 896.704" stroke="#1BC47D" stroke-width="32" stroke-linecap="round"/>
<path d="M172.922 346.722C161.259 372.474 127.106 431.53 83.8004 461.733C29.6685 499.488 2.72728 546.294 -19.1031 594.53C-40.9334 642.766 -73.1416 705.732 -141.913 753.016C-196.931 790.843 -247.732 875.752 -266.255 913.478" stroke="#18A0FB" stroke-width="32" stroke-linecap="round"/>
<path d="M195.589 364.287C183.926 390.039 149.773 449.095 106.467 479.298C52.3355 517.053 25.3943 563.858 3.56392 612.095C-18.2664 660.331 -50.4746 723.297 -119.246 770.581C-174.264 808.408 -225.065 893.317 -243.588 931.043" stroke="#907CFF" stroke-width="32" stroke-linecap="round"/>
<path d="M218.257 381.852C206.593 407.604 172.44 466.659 129.135 496.863C75.0029 534.617 48.0618 581.423 26.2314 629.659C4.40105 677.895 -27.8071 740.861 -96.579 788.145C-151.596 825.972 -202.397 910.881 -220.921 948.607" stroke="#EE46D3" stroke-width="32" stroke-linecap="round"/>
<path d="M240.924 399.416C229.26 425.168 195.107 484.224 151.802 514.427C97.6699 552.181 70.7287 598.987 48.8984 647.223C27.068 695.46 -5.14014 758.426 -73.912 805.71C-128.929 843.537 -179.73 928.446 -198.254 966.172" stroke="#EF5533" stroke-width="32" stroke-linecap="round"/>
<path fill-rule="evenodd" clip-rule="evenodd" d="M189.239 123.515C241.672 54.0256 322.964 48.1799 387.244 96.6814C451.211 144.948 467.899 224.723 415.467 294.212C384.04 335.863 346.462 352.77 306.97 348.408C305.685 368.033 295.769 388.805 280.409 409.162C250.927 448.235 214.949 466.078 185.099 443.555C160.571 425.047 169.375 403.753 181.604 380.326L172.348 373.343C153.871 392.055 135.223 409.55 106.299 387.726C74.1343 363.456 83.1635 321.651 112.645 282.578C128.99 260.916 147.947 244.433 169.237 238.706C154.87 202.819 159.201 163.325 189.239 123.515ZM345.515 287.074C365.523 285.393 393.539 274.255 385.684 264.759C380.589 258.6 360.272 250.54 337.55 241.525L337.549 241.525L337.549 241.525C325.237 236.64 312.22 231.476 300.534 226.182C288.848 220.887 276.128 214.198 264.098 207.871C241.895 196.194 222.042 185.754 215.384 187.604C205.119 190.457 213.166 216.367 225.095 232.517C237.025 248.666 256.414 263.487 278.997 273.718C301.581 283.95 325.508 288.754 345.515 287.074ZM249.681 146.163C237.403 140.934 228.662 148.363 225.916 152.497C224.846 154.108 222.674 154.546 221.064 153.477C219.454 152.407 219.015 150.235 220.085 148.625C223.883 142.905 235.862 132.67 252.424 139.722C263.149 144.29 267.629 151.731 269.263 158.174C270.061 161.324 270.166 164.164 270.074 166.217C270.028 167.248 269.932 168.094 269.843 168.699C269.799 169.002 269.756 169.246 269.723 169.424C269.716 169.46 269.709 169.494 269.703 169.525L269.696 169.56C269.693 169.577 269.689 169.593 269.686 169.608L269.68 169.64C269.674 169.668 269.669 169.691 269.665 169.71L269.659 169.735L269.657 169.745L269.656 169.75C269.656 169.752 269.655 169.754 266.243 168.975L269.655 169.754C269.225 171.638 267.349 172.817 265.464 172.387C263.585 171.958 262.408 170.093 262.827 168.214L249.681 146.163ZM249.681 146.163C258.216 149.797 261.331 155.372 262.478 159.894C263.069 162.227 263.151 164.358 263.081 165.904C263.047 166.673 262.976 167.284 262.917 167.686C262.888 167.887 262.861 168.034 262.845 168.122C262.84 168.147 262.836 168.167 262.833 168.182L262.828 168.207L262.827 168.212L249.681 146.163ZM367.668 211.884C370.881 208.1 380.433 201.749 392.013 208.383L402.478 231.826C401.842 233.642 402.792 235.633 404.607 236.28C406.428 236.928 408.43 235.978 409.078 234.157L405.781 232.982C409.078 234.157 409.079 234.155 409.08 234.153L409.081 234.148L409.085 234.139L409.093 234.115C409.097 234.102 409.102 234.088 409.108 234.072L409.116 234.047C409.127 234.016 409.138 233.98 409.152 233.939C409.162 233.908 409.173 233.874 409.184 233.837C409.239 233.664 409.31 233.427 409.389 233.131C409.548 232.541 409.743 231.712 409.91 230.694C410.242 228.666 410.472 225.833 410.049 222.611C409.183 216.021 405.608 208.105 395.492 202.309C379.874 193.361 366.776 202.119 362.332 207.353C361.081 208.827 361.261 211.035 362.735 212.286C364.208 213.538 366.417 213.357 367.668 211.884ZM402.479 231.824L392.013 208.383C400.061 212.994 402.501 218.896 403.108 223.523C403.422 225.909 403.253 228.034 403.002 229.562C402.878 230.321 402.735 230.92 402.63 231.312C402.577 231.508 402.534 231.651 402.507 231.736C402.494 231.778 402.485 231.806 402.48 231.818L402.479 231.824Z" fill="url(#paint0_linear_2123_38189)"/>
</g>
<defs>
<linearGradient id="paint0_linear_2123_38189" x1="186" y1="88" x2="488.5" y2="376" gradientUnits="userSpaceOnUse">
<stop stop-color="#8B47FC"/>
<stop offset="1" stop-color="#11FFD5"/>
</linearGradient>
<clipPath id="clip0_2123_38189">
<rect width="530" height="530" rx="265" fill="white"/>
</clipPath>
</defs>
</svg>
