<svg width="91" height="30" viewBox="0 0 91 30" fill="none" xmlns="http://www.w3.org/2000/svg">
<path d="M10.5177 0C8.56515 0 6.98232 1.59898 6.98232 3.57143V5.40357C6.98232 6.31484 6.24359 7.05357 5.33232 7.05357H3.53535C1.58283 7.05357 0 8.65255 0 10.625V10.6611C0 12.6136 1.58283 14.1964 3.53535 14.1964C5.48788 14.1964 7.07071 12.5974 7.07071 10.625V8.79286C7.07071 7.88159 7.80944 7.14286 8.72071 7.14286H21.3818C21.872 7.14286 22.2678 6.7422 22.2617 6.25197L22.1951 0.869112C22.1891 0.387385 21.7969 0 21.3152 0H10.5177Z" fill="#F8F8F7"/>
<path d="M0 22.0536C0 20.0811 1.58283 18.4821 3.53535 18.4821H5.24394C6.15521 18.4821 6.89394 17.7434 6.89394 16.8321V15C6.89394 13.0276 8.47677 11.4286 10.4293 11.4286H21.3927C21.8787 11.4286 22.2727 11.8226 22.2727 12.3086V17.6914C22.2727 18.1774 21.8787 18.5714 21.3927 18.5714H8.72071C7.80944 18.5714 7.07071 19.3102 7.07071 20.2214V22.0536C7.07071 24.026 5.48788 25.625 3.53535 25.625C1.58283 25.625 0 24.0422 0 22.0896V22.0536Z" fill="#F8F8F7"/>
<path d="M10.4293 22.8571C8.47677 22.8571 6.89394 24.4561 6.89394 26.4286C6.89394 28.401 8.49292 30 10.4654 30H13.9498C15.9222 30 17.5212 28.401 17.5212 26.4286C17.5212 24.4561 15.9222 22.8571 13.9498 22.8571H10.4293Z" fill="#F8F8F7"/>
<path d="M86.3778 23.4132V10.8408H89.7456V23.4132H86.3778ZM86.0781 7.13743C86.0781 6.55416 86.2619 6.08274 86.6294 5.72319C86.997 5.35565 87.4764 5.17188 88.0677 5.17188C88.6589 5.17188 89.1423 5.35565 89.5178 5.72319C89.8934 6.08274 90.0811 6.55416 90.0811 7.13743C90.0811 7.71271 89.8934 8.18013 89.5178 8.53968C89.1423 8.89924 88.6589 9.07901 88.0677 9.07901C87.4764 9.07901 86.997 8.89924 86.6294 8.53968C86.2619 8.18013 86.0781 7.71271 86.0781 7.13743Z" fill="#F8F8F7"/>
<path d="M73.2188 23.428V5.75H76.5866V15.9134H76.7064L81.5124 10.8556H85.1199L80.5057 15.9613V16.0692L85.3716 23.428H81.6922L78.1806 18.1066H78.0847L76.5866 19.6527V23.428H73.2188Z" fill="#F8F8F7"/>
<path d="M65.3162 23.5876C63.3667 23.5876 61.7966 23.0004 60.6061 21.8258C59.4156 20.6513 58.8203 19.0972 58.8203 17.1636C58.8203 15.222 59.4156 13.656 60.6061 12.4655C61.7966 11.2749 63.3667 10.6797 65.3162 10.6797C67.2818 10.6797 68.8598 11.2749 70.0503 12.4655C71.2488 13.656 71.8481 15.222 71.8481 17.1636C71.8481 19.0892 71.2488 20.6433 70.0503 21.8258C68.8518 23.0004 67.2738 23.5876 65.3162 23.5876ZM62.248 17.1636C62.248 18.4021 62.5117 19.3609 63.0391 20.04C63.5744 20.7192 64.3335 21.0588 65.3162 21.0588C66.291 21.0588 67.0501 20.7192 67.5934 20.04C68.1367 19.3609 68.4084 18.4021 68.4084 17.1636C68.4084 15.9012 68.1367 14.9264 67.5934 14.2393C67.0581 13.5521 66.299 13.2085 65.3162 13.2085C64.3335 13.2085 63.5744 13.5521 63.0391 14.2393C62.5117 14.9264 62.248 15.9012 62.248 17.1636Z" fill="#F8F8F7"/>
<path d="M46 23.4198V10.8475H49.212V12.6932H49.3199C50.2307 11.3509 51.5451 10.6797 53.263 10.6797C54.7092 10.6797 55.8118 11.1551 56.5708 12.1059C57.3299 13.0487 57.7094 14.439 57.7094 16.2767V23.4198H54.3176V16.2767C54.3176 15.27 54.1179 14.5269 53.7184 14.0475C53.3269 13.5681 52.7077 13.3284 51.8607 13.3284C51.0058 13.3284 50.3746 13.5681 49.9671 14.0475C49.5676 14.5269 49.3678 15.27 49.3678 16.2767V23.4198H46Z" fill="#F8F8F7"/>
<path d="M32.4375 23.4132V6.22656H44.075V9.0071H35.9012V13.3697H43.5836V16.1742H35.9012V20.6446H44.2907V23.4132H32.4375Z" fill="#F8F8F7"/>
</svg>
